<?xml version="1.0" encoding="UTF-8"?>
<!DOCTYPE svg  PUBLIC '-//W3C//DTD SVG 1.1//EN'  'http://www.w3.org/Graphics/SVG/1.1/DTD/svg11.dtd' [
	<!ENTITY ns_extend "http://ns.adobe.com/Extensibility/1.0/">
	<!ENTITY ns_ai "http://ns.adobe.com/AdobeIllustrator/10.0/">
	<!ENTITY ns_graphs "http://ns.adobe.com/Graphs/1.0/">
	<!ENTITY ns_vars "http://ns.adobe.com/Variables/1.0/">
	<!ENTITY ns_imrep "http://ns.adobe.com/ImageReplacement/1.0/">
	<!ENTITY ns_sfw "http://ns.adobe.com/SaveForWeb/1.0/">
	<!ENTITY ns_custom "http://ns.adobe.com/GenericCustomNamespace/1.0/">
	<!ENTITY ns_adobe_xpath "http://ns.adobe.com/XPath/1.0/">
]>
<svg xmlns="http://www.w3.org/2000/svg" xml:space="preserve" viewBox="0 0 400 400">
  <switch>
    <g>
      <path d="M8.3 193.8c0-47 8.2-70.5 24.7-70.5.8 0 3.7 1.4 8.7 4.2s11.5 5.6 19.5 8.5 15.9 4.3 23.8 4.3c8.9 0 17.8-1.5 26.6-4.6-.7 4.9-1 9.3-1 13.2 0 18.5 5.4 35.5 16.2 51.1-21.5.7-39.2 9.2-52.9 25.6H47.1c-10.9 0-20.1-2.7-27.5-8.1-7.5-5.4-11.3-13.3-11.3-23.7zm40.6-85.4c-10-10-15-22-15-36.1s5-26.2 15-36.1c10-10 22-15 36.1-15s26.1 5 36.1 15 15 22 15 36.1-5 26.1-15 36.1-22 15-36.1 15c-14.1-.1-26.2-5-36.1-15zm10.5 218.8c0-7 .2-13.9.7-20.7.5-6.7 1.4-14 2.8-21.8s3.2-15 5.3-21.7 5-13.1 8.6-19.5c3.6-6.3 7.7-11.7 12.4-16.2s10.3-8 17.1-10.7c6.7-2.7 14.1-4 22.3-4 1.3 0 4.2 1.4 8.6 4.3s9.3 6.1 14.6 9.6 12.4 6.7 21.4 9.6c8.9 2.9 17.9 4.3 26.9 4.3 9.1 0 18-1.4 27-4.3 8.9-2.9 16-6.1 21.4-9.6 5.3-3.5 10.2-6.7 14.6-9.6s7.3-4.3 8.6-4.3c8.1 0 15.5 1.3 22.2 4s12.4 6.2 17.1 10.7 8.8 9.9 12.4 16.2 6.4 12.8 8.6 19.5c2.1 6.7 3.9 13.9 5.3 21.7s2.3 15 2.8 21.8c.5 6.7.7 13.6.7 20.7 0 16-4.9 28.6-14.6 37.8s-22.6 13.9-38.7 13.9H112.7c-16.1 0-29-4.6-38.7-13.9-9.7-9.2-14.6-21.9-14.6-37.8zm86.4-124.1c-15-15-22.5-33-22.5-54.2s7.5-39.2 22.5-54.2 33-22.5 54.2-22.5 39.2 7.5 54.2 22.5 22.5 33 22.5 54.2-7.5 39.2-22.5 54.2-33 22.5-54.2 22.5-39.2-7.5-54.2-22.5zm133.1-94.7c-10-10-15-22-15-36.1s5-26.2 15-36.1c10-10 22-15 36.1-15s26.1 5 36.1 15 15 22 15 36.1-5 26.1-15 36.1-22 15-36.1 15c-14.1-.1-26.2-5-36.1-15zm-5.6 91.6c10.8-15.6 16.2-32.6 16.2-51.1 0-3.9-.3-8.2-1-13.2 8.8 3.1 17.6 4.6 26.6 4.6 7.8 0 15.8-1.4 23.8-4.3s14.5-5.7 19.5-8.5 7.9-4.2 8.7-4.2c16.5 0 24.8 23.5 24.8 70.5 0 10.4-3.7 18.3-11.2 23.7s-16.7 8.1-27.6 8.1h-26.7c-13.9-16.4-31.6-24.9-53.1-25.6z"/>
    </g>
  </switch>
</svg>